<?xml version="1.0" standalone="no"?>
<!DOCTYPE svg PUBLIC "-//W3C//DTD SVG 20010904//EN"
 "http://www.w3.org/TR/2001/REC-SVG-20010904/DTD/svg10.dtd">
<svg version="1.0" xmlns="http://www.w3.org/2000/svg"
 width="600.000000pt" height="400.000000pt" viewBox="0 0 600.000000 400.000000"
 preserveAspectRatio="xMidYMid meet">
<g transform="translate(0.000000,400.000000) scale(0.100000,-0.100000)"
fill="#000000" stroke="none">
<path d="M2317 2590 c-32 -4 -61 -11 -65 -15 -4 -4 3 -5 16 -2 29 7 29 -11 -1
-22 -34 -13 -86 -59 -103 -93 -8 -16 -19 -26 -25 -23 -5 4 -23 -23 -40 -60
-30 -62 -31 -71 -27 -163 3 -80 9 -106 30 -147 30 -57 83 -111 148 -149 57
-33 45 -34 -18 -2 -60 31 -117 92 -151 165 -22 47 -26 70 -26 146 0 81 3 97
33 160 18 40 24 60 14 46 -12 -14 -22 -20 -26 -13 -3 6 0 13 6 15 10 4 10 6 1
6 -7 1 -17 -8 -23 -19 -9 -16 -8 -19 6 -13 12 4 15 2 12 -8 -3 -8 -14 -13 -24
-11 -14 2 -15 0 -6 -6 10 -7 11 -19 3 -53 -25 -107 -17 -199 25 -283 31 -63
103 -131 158 -149 86 -30 113 -37 142 -38 l29 0 -25 -10 c-14 -6 -35 -8 -48
-6 -12 2 -25 0 -29 -6 -9 -15 182 -4 201 12 9 7 16 11 16 7 0 -10 78 32 86 46
6 9 3 9 -9 -1 -9 -7 -17 -10 -17 -6 0 4 -6 3 -13 -3 -18 -15 -67 -33 -67 -24
0 4 18 15 40 25 100 46 171 161 178 289 8 141 -45 266 -142 336 -20 14 -36 30
-35 36 0 6 3 6 6 -1 2 -7 11 -13 19 -13 8 0 14 -5 14 -11 0 -5 5 -7 10 -4 6 3
10 2 10 -2 0 -5 10 -14 23 -22 21 -13 21 -13 7 4 -8 10 -32 29 -54 42 -31 20
-40 22 -47 11 -7 -10 -9 -9 -9 6 0 13 -5 17 -20 13 -11 -3 -18 -1 -14 4 3 5
-5 9 -18 9 -13 0 -39 2 -58 4 -19 2 -61 1 -93 -4z m90 -6 c-3 -3 -12 -4 -19
-1 -8 3 -5 6 6 6 11 1 17 -2 13 -5z m110 -55 c71 -34 115 -80 152 -159 23 -48
26 -68 26 -160 0 -89 -4 -113 -24 -158 -32 -71 -115 -147 -183 -167 -64 -19
-72 -19 -139 1 -208 61 -292 445 -133 608 78 80 181 92 301 35z m-405 -214
c-2 -14 -9 -25 -14 -25 -6 0 -7 7 -4 16 3 9 6 22 6 30 0 9 4 13 9 10 4 -3 6
-17 3 -31z m-2 -89 c0 -30 9 -83 20 -118 23 -73 25 -93 6 -58 -8 14 -12 28
-10 32 3 5 1 8 -5 8 -13 0 -30 56 -31 105 -3 66 -1 85 10 85 6 0 10 -24 10
-54z m375 -366 c3 -5 1 -10 -4 -10 -6 0 -11 5 -11 10 0 6 2 10 4 10 3 0 8 -4
11 -10z m-35 -10 c-8 -5 -22 -9 -30 -9 -10 0 -8 3 5 9 27 12 43 12 25 0z"/>
<path d="M2302 2539 c-48 -15 -107 -78 -131 -143 -29 -77 -29 -202 0 -288 42
-129 126 -209 229 -216 111 -8 198 45 252 155 30 62 33 76 33 158 -1 79 -4 98
-32 156 -34 74 -84 129 -144 160 -47 24 -157 34 -207 18z m112 -7 c2 -4 -15
-7 -39 -7 -24 0 -41 3 -38 8 6 9 70 9 77 -1z m76 -27 c42 -21 133 -110 136
-132 0 -5 6 -21 13 -38 7 -16 16 -64 20 -106 10 -112 -13 -180 -83 -253 -30
-31 -61 -57 -68 -57 -7 -1 -26 -3 -43 -5 -23 -2 -26 -1 -15 7 11 7 1 9 -37 7
-28 -2 -49 0 -47 3 2 4 -6 9 -19 13 -34 8 -99 75 -112 115 -3 12 -11 21 -16
21 -6 0 -7 -6 -2 -12 4 -7 8 -16 8 -20 0 -3 10 -18 22 -32 13 -14 19 -26 14
-26 -12 0 -42 43 -64 91 -36 78 -39 227 -7 319 17 46 62 108 68 91 2 -7 0 -16
-5 -20 -16 -11 -44 -61 -34 -61 5 0 12 9 16 20 3 11 23 33 43 50 30 25 46 30
87 30 27 0 62 -7 78 -14 25 -14 26 -14 17 4 -5 10 -15 21 -22 23 -7 3 -9 6 -5
6 4 1 30 -10 57 -24z"/>
<path d="M2480 2488 c0 -8 62 -108 67 -108 2 0 -3 12 -11 28 -21 38 -56 88
-56 80z"/>
<path d="M2205 2390 c3 -5 8 -10 11 -10 2 0 4 5 4 10 0 6 -5 10 -11 10 -5 0
-7 -4 -4 -10z"/>
<path d="M2190 2330 c-6 -11 -8 -20 -6 -20 3 0 10 9 16 20 6 11 8 20 6 20 -3
0 -10 -9 -16 -20z"/>
<path d="M2182 2270 c0 -14 2 -19 5 -12 2 6 2 18 0 25 -3 6 -5 1 -5 -13z"/>
<path d="M2575 2240 c-3 -5 -1 -10 4 -10 6 0 11 5 11 10 0 6 -2 10 -4 10 -3 0
-8 -4 -11 -10z"/>
<path d="M2180 2193 c0 -5 5 -15 10 -23 7 -12 9 -10 7 8 -1 19 -17 33 -17 15z"/>
<path d="M2582 2175 c0 -16 2 -22 5 -12 2 9 2 23 0 30 -3 6 -5 -1 -5 -18z"/>
<path d="M2578 2097 c-3 -19 -2 -25 4 -19 6 6 8 18 6 28 -3 14 -5 12 -10 -9z"/>
<path d="M2205 2100 c3 -5 8 -10 11 -10 2 0 4 5 4 10 0 6 -5 10 -11 10 -5 0
-7 -4 -4 -10z"/>
<path d="M2491 1949 c-13 -10 -19 -19 -15 -19 13 1 48 29 43 34 -2 2 -15 -4
-28 -15z"/>
<path d="M3542 2590 c-29 -4 -56 -11 -60 -15 -4 -4 9 -4 28 -2 39 6 36 4 -38
-42 -22 -13 -50 -41 -63 -62 -13 -21 -31 -40 -40 -42 -31 -8 -63 -113 -62
-204 0 -69 5 -90 30 -145 35 -74 85 -128 151 -163 26 -14 36 -23 22 -19 -69
18 -147 92 -186 178 -46 101 -43 229 9 331 16 31 16 37 4 27 -34 -29 -60 -122
-59 -215 0 -75 5 -97 30 -150 58 -124 128 -175 277 -203 l40 -7 -29 -8 c-16
-5 -33 -6 -37 -3 -4 2 -10 0 -14 -6 -10 -16 135 -12 195 6 72 21 169 84 131
84 -6 0 -11 -4 -11 -10 0 -5 -17 -17 -37 -27 -21 -9 -41 -19 -45 -21 -5 -2 -8
1 -8 6 0 6 9 13 20 17 28 9 108 91 129 134 67 134 47 322 -44 429 -20 22 -31
43 -26 46 5 4 18 -5 29 -19 11 -14 23 -25 28 -25 4 0 -5 13 -21 30 -21 21 -32
27 -41 19 -14 -11 -29 4 -20 20 8 12 -73 54 -90 47 -7 -3 -14 -1 -16 3 -5 13
-117 20 -176 11z m130 -31 c107 -23 182 -83 229 -183 76 -163 30 -369 -102
-458 -212 -142 -451 66 -425 372 12 142 78 237 184 266 60 16 52 16 114 3z
m109 -6 c16 -10 29 -22 29 -27 0 -5 -8 -2 -18 7 -10 10 -24 17 -30 17 -6 0
-14 5 -17 10 -9 15 3 12 36 -7z m-418 -433 c2 -8 9 -28 16 -45 20 -51 21 -56
12 -51 -31 19 -69 156 -64 231 6 105 17 101 24 -10 4 -60 9 -117 12 -125z
m387 -255 c-7 -9 -15 -13 -19 -10 -3 3 1 10 9 15 21 14 24 12 10 -5z"/>
<path d="M3524 2531 c-101 -46 -161 -202 -134 -351 32 -182 133 -290 270 -290
109 0 198 66 241 181 31 85 25 221 -14 302 -70 141 -238 215 -363 158z m126 2
c0 -5 -18 -8 -39 -8 -22 0 -37 3 -34 8 2 4 20 7 39 7 19 0 34 -3 34 -7z m154
-87 c41 -43 47 -52 80 -129 23 -55 21 -172 -5 -241 -35 -95 -147 -192 -190
-165 -10 6 -10 9 -1 10 6 1 15 2 20 3 12 2 46 30 62 51 8 11 -1 7 -19 -10 -30
-28 -38 -30 -112 -31 -44 0 -83 4 -86 9 -4 6 0 7 8 3 8 -4 5 -1 -5 8 -10 8
-23 13 -28 10 -5 -3 -7 0 -6 8 2 7 -3 12 -10 10 -8 -1 -11 1 -9 5 3 5 -1 17
-9 28 -14 19 -14 19 -14 -1 0 -15 -2 -16 -10 -4 -5 8 -5 19 0 25 5 6 5 17 -2
25 -8 12 -9 11 -4 -3 4 -12 2 -17 -6 -15 -7 3 -21 29 -32 59 -29 78 -28 224 2
300 23 58 82 127 82 96 0 -9 -6 -20 -12 -24 -7 -4 -20 -17 -28 -28 -8 -11 4
-3 27 17 43 38 72 50 126 52 17 1 32 6 34 13 6 18 102 -34 147 -81z"/>
<path d="M3660 2510 c0 -6 4 -10 10 -10 5 0 25 -14 45 -31 42 -38 47 -28 5 11
-33 31 -60 44 -60 30z"/>
<path d="M3770 2391 c0 -6 4 -12 8 -15 5 -3 9 1 9 9 0 8 -4 15 -9 15 -4 0 -8
-4 -8 -9z"/>
<path d="M3426 2305 c4 -8 8 -15 10 -15 2 0 4 7 4 15 0 8 -4 15 -10 15 -5 0
-7 -7 -4 -15z"/>
<path d="M3422 2245 c0 -16 2 -22 5 -12 2 9 2 23 0 30 -3 6 -5 -1 -5 -18z"/>
<path d="M3811 2241 c-1 -24 2 -32 9 -25 7 7 7 19 1 35 -9 23 -10 22 -10 -10z"/>
<path d="M3811 2170 c0 -33 1 -34 11 -12 8 17 8 26 0 34 -9 9 -12 4 -11 -22z"/>
<path d="M3422 2170 c0 -14 2 -19 5 -12 2 6 2 18 0 25 -3 6 -5 1 -5 -13z"/>
<path d="M3435 2120 c-3 -5 -1 -10 4 -10 6 0 11 5 11 10 0 6 -2 10 -4 10 -3 0
-8 -4 -11 -10z"/>
<path d="M3811 2103 c0 -25 1 -26 9 -8 12 27 12 35 0 35 -5 0 -10 -12 -9 -27z"/>
<path d="M3800 2050 c-6 -11 -8 -20 -4 -20 3 0 0 -8 -7 -17 -13 -16 -12 -17 4
-4 9 8 15 16 13 19 -3 2 -1 13 5 23 5 11 7 19 5 19 -3 0 -10 -9 -16 -20z"/>
<path d="M2720 2586 c3 -2 38 -7 79 -10 90 -7 104 -15 30 -18 -30 -1 11 -4 91
-7 130 -6 149 -9 188 -31 82 -47 113 -139 73 -219 -34 -67 -138 -121 -232
-121 l-49 0 0 -123 c0 -150 8 -165 85 -157 16 1 15 3 -7 12 -16 5 -28 14 -28
20 0 6 -7 8 -15 4 -13 -5 -15 11 -14 107 0 62 4 103 8 93 7 -19 8 -19 29 2 12
12 32 24 44 27 21 5 27 -3 63 -77 91 -188 248 -333 395 -363 45 -9 29 8 -22
24 -92 30 -212 130 -285 237 -44 64 -107 184 -100 190 2 2 31 -43 65 -101 69
-115 157 -217 232 -265 51 -33 169 -81 138 -57 -27 21 -10 28 28 12 61 -25 36
-6 -31 24 -36 17 -80 40 -98 52 -29 21 -31 21 -14 2 10 -11 35 -28 57 -38 22
-10 40 -22 40 -27 0 -12 -6 -10 -63 18 -62 32 -222 188 -213 209 3 8 0 14 -7
12 -7 -1 -11 6 -10 16 0 10 -1 16 -5 13 -3 -3 -16 9 -29 26 -26 36 -27 38 -13
38 6 0 10 -8 11 -17 0 -10 3 -13 5 -6 7 16 -24 73 -39 73 -8 0 -7 -4 3 -10 8
-5 11 -10 5 -10 -5 0 -3 -5 5 -10 9 -6 10 -10 3 -10 -7 0 -17 9 -23 20 -6 11
-7 20 -3 20 4 0 0 6 -8 13 -8 6 -13 11 -11 10 5 -2 35 24 87 74 66 63 74 149
20 218 -14 19 -21 36 -16 40 5 3 17 -5 25 -17 9 -12 16 -18 16 -12 0 19 -42
51 -47 36 -3 -6 -9 -10 -13 -7 -5 3 -7 12 -4 19 3 7 -2 16 -12 20 -14 5 -15 4
-4 -9 7 -8 8 -15 2 -15 -12 0 -34 25 -27 32 13 12 -120 27 -250 28 -76 0 -137
-1 -135 -4z m295 -16 c-3 -6 -17 -10 -31 -10 -33 0 -24 15 11 18 15 1 24 -2
20 -8z"/>
<path d="M2210 2560 c-8 -5 -10 -10 -5 -10 6 0 17 5 25 10 8 5 11 10 5 10 -5
0 -17 -5 -25 -10z"/>
<path d="M2175 2540 c-3 -5 -1 -10 4 -10 6 0 11 5 11 10 0 6 -2 10 -4 10 -3 0
-8 -4 -11 -10z"/>
<path d="M2733 2525 c15 -9 27 -20 27 -26 0 -6 5 -7 10 -4 14 8 -9 31 -40 39
-23 6 -23 6 3 -9z"/>
<path d="M2800 2533 c72 -11 65 22 65 -312 0 -279 2 -301 19 -320 11 -12 26
-21 34 -21 12 0 10 5 -6 20 -22 21 -22 25 -22 330 l0 310 -57 -1 c-32 -1 -47
-3 -33 -6z"/>
<path d="M2900 2364 l0 -177 62 7 c138 16 221 83 220 177 -2 101 -93 169 -229
169 l-53 0 0 -176z m132 149 c87 -34 129 -83 124 -148 -4 -61 -36 -99 -114
-139 -38 -19 -56 -13 -26 8 40 29 59 45 53 46 -3 0 -20 -11 -39 -25 -19 -14
-47 -25 -62 -25 l-28 0 0 134 c0 152 4 160 66 125 20 -11 38 -18 41 -16 2 3
-10 11 -26 18 -17 8 -31 17 -31 21 0 4 -15 9 -32 11 l-33 4 32 1 c18 1 52 -6
75 -15z m-105 -220 c-1 -43 -3 -10 -3 72 0 83 2 118 3 78 2 -40 2 -107 0 -150z"/>
<path d="M3060 2451 c0 -6 4 -13 10 -16 6 -3 7 1 4 9 -7 18 -14 21 -14 7z"/>
<path d="M3072 2371 c1 -38 3 -42 11 -23 7 15 7 29 -1 45 -9 19 -11 16 -10
-22z"/>
<path d="M3330 2468 c-15 -21 -17 -28 -6 -19 16 13 41 51 33 51 -2 0 -14 -15
-27 -32z"/>
<path d="M2095 2470 c-10 -11 -14 -20 -9 -20 5 0 15 9 22 20 7 11 11 20 9 20
-2 0 -12 -9 -22 -20z"/>
<path d="M2774 2325 c0 -82 2 -115 3 -72 2 43 2 110 0 150 -1 40 -3 5 -3 -78z"/>
<path d="M2660 2456 c0 -2 7 -7 16 -10 8 -3 12 -2 9 4 -6 10 -25 14 -25 6z"/>
<path d="M3900 2446 c0 -2 7 -7 16 -10 8 -3 12 -2 9 4 -6 10 -25 14 -25 6z"/>
<path d="M2700 2396 c0 -8 4 -17 9 -20 5 -4 7 3 4 14 -6 23 -13 26 -13 6z"/>
<path d="M3251 2284 c0 -11 3 -14 6 -6 3 7 2 16 -1 19 -3 4 -6 -2 -5 -13z"/>
<path d="M3172 2230 c-18 -17 -29 -30 -24 -30 5 0 21 14 37 30 37 38 30 38
-13 0z"/>
<path d="M2752 2218 c-1 -20 -5 -45 -8 -55 -5 -17 -5 -17 6 0 6 9 9 34 7 55
l-4 37 -1 -37z"/>
<path d="M3983 2205 c0 -22 2 -30 4 -17 2 12 2 30 0 40 -3 9 -5 -1 -4 -23z"/>
<path d="M3100 2184 c0 -14 3 -14 15 -4 8 7 15 14 15 16 0 2 -7 4 -15 4 -8 0
-15 -7 -15 -16z"/>
<path d="M2011 2174 c0 -11 3 -14 6 -6 3 7 2 16 -1 19 -3 4 -6 -2 -5 -13z"/>
<path d="M3240 2168 c0 -19 2 -20 10 -8 13 19 13 30 0 30 -5 0 -10 -10 -10
-22z"/>
<path d="M2773 2120 c0 -30 2 -43 4 -27 2 15 2 39 0 55 -2 15 -4 2 -4 -28z"/>
<path d="M2731 2124 c0 -11 3 -14 6 -6 3 7 2 16 -1 19 -3 4 -6 -2 -5 -13z"/>
<path d="M2773 1985 c0 -22 2 -30 4 -17 2 12 2 30 0 40 -3 9 -5 -1 -4 -23z"/>
<path d="M2932 1990 c0 -19 2 -27 5 -17 2 9 2 25 0 35 -3 9 -5 1 -5 -18z"/>
<path d="M1839 1981 c-42 -8 -109 -48 -109 -64 0 -8 4 -7 12 1 18 18 30 15 24
-5 -9 -28 32 -67 109 -106 39 -19 79 -38 90 -42 97 -37 160 -57 215 -71 36 -8
72 -18 80 -21 8 -3 22 -7 30 -8 166 -30 263 -45 331 -49 46 -4 95 -9 109 -11
14 -3 39 -1 55 3 24 7 9 10 -70 15 -345 24 -819 160 -915 262 -29 30 -21 41
54 76 60 28 56 33 -15 20z"/>
<path d="M3230 1981 c0 -6 4 -13 10 -16 6 -3 7 1 4 9 -7 18 -14 21 -14 7z"/>
<path d="M3906 1965 c-11 -8 -15 -15 -9 -15 6 0 16 7 23 15 16 19 11 19 -14 0z"/>
<path d="M3340 1951 c0 -6 4 -13 10 -16 6 -3 7 1 4 9 -7 18 -14 21 -14 7z"/>
<path d="M1829 1931 c-23 -18 -23 -20 -6 -39 44 -48 245 -129 449 -181 220
-56 432 -82 640 -79 91 2 164 6 162 10 -3 4 -56 6 -119 4 -62 -1 -112 1 -110
4 2 4 -13 7 -33 7 -53 0 -262 29 -381 53 -56 11 -107 18 -113 14 -7 -5 -8 -3
-3 6 6 10 0 12 -24 8 -17 -2 -29 -2 -26 0 3 3 -53 25 -125 48 -71 24 -153 54
-181 68 -28 15 -56 23 -61 19 -6 -3 -8 -1 -4 5 3 6 2 13 -4 17 -17 11 -11 24
18 39 18 11 22 15 10 16 -25 0 -62 -41 -46 -52 10 -6 10 -8 0 -8 -19 0 -26 28
-12 45 18 21 -3 19 -31 -4z m746 -269 c-3 -3 -11 0 -18 7 -9 10 -8 11 6 5 10
-3 15 -9 12 -12z"/>
<path d="M2132 1915 c38 -35 58 -44 58 -24 0 5 -5 7 -10 4 -6 -4 -24 7 -41 24
-17 17 -34 31 -37 31 -4 0 10 -16 30 -35z"/>
<path d="M2634 1928 l-19 -23 23 19 c12 11 22 21 22 23 0 8 -8 2 -26 -19z"/>
<path d="M3285 1920 c17 -19 31 -37 33 -39 1 -2 4 -2 7 1 3 2 -12 20 -33 39
l-37 34 30 -35z"/>
<path d="M2765 1930 c3 -5 0 -10 -7 -10 -8 0 -23 -7 -34 -15 -18 -13 -17 -14
15 -10 18 2 42 12 52 21 23 21 25 7 2 -18 -9 -10 -11 -18 -6 -18 18 0 36 29
29 46 -5 13 -9 14 -21 4 -10 -9 -15 -9 -15 -1 0 6 -5 11 -11 11 -5 0 -7 -4 -4
-10z"/>
<path d="M3412 1885 c20 -14 40 -25 45 -25 4 0 -9 11 -29 25 -20 14 -40 25
-45 25 -4 0 9 -11 29 -25z"/>
<path d="M2235 1860 c-3 -5 -3 -10 2 -10 4 0 18 -3 31 -6 13 -4 22 -2 22 5 0
7 -5 9 -10 6 -6 -4 -17 -2 -25 5 -9 7 -15 8 -20 0z"/>
<path d="M2725 1860 c-4 -7 44 -10 139 -9 80 1 146 5 146 10 0 13 -277 11
-285 -1z"/>
<path d="M3470 1861 c0 -13 39 -21 47 -9 3 6 1 8 -5 4 -6 -3 -13 -2 -17 4 -8
12 -25 13 -25 1z"/>
<path d="M3170 1797 c60 -58 120 -102 120 -88 0 6 -8 14 -17 18 -20 7 -27 13
-90 73 -23 22 -46 40 -50 40 -4 0 13 -19 37 -43z"/>
<path d="M1785 1792 c27 -24 87 -54 83 -41 -3 8 -10 14 -16 14 -6 0 -20 7 -30
15 -20 17 -54 28 -37 12z"/>
<path d="M3981 1778 c-68 -31 -255 -93 -361 -119 -52 -13 -97 -26 -100 -29 -3
-3 -16 -6 -30 -6 -54 -3 -179 -28 -174 -35 2 -4 14 -5 27 -3 81 20 103 22 112
12 7 -7 7 -9 0 -6 -5 3 -41 -2 -80 -12 -38 -10 -60 -19 -49 -19 47 -2 349 69
363 85 3 4 -2 4 -11 1 -10 -4 -18 -3 -18 2 0 12 39 21 46 10 3 -5 11 -9 17 -9
8 0 8 3 -1 9 -11 7 -11 9 1 14 8 3 20 0 26 -6 9 -9 11 -8 6 4 -5 13 3 18 37
24 49 9 44 8 83 25 17 7 32 14 35 14 14 3 79 32 105 48 39 24 21 22 -34 -4z
m-411 -152 c0 -9 -30 -14 -35 -6 -4 6 3 10 14 10 12 0 21 -2 21 -4z m-60 -17
c0 -5 -9 -9 -20 -9 -11 0 -20 4 -20 8 0 4 9 8 20 9 11 1 20 -2 20 -8z"/>
<path d="M4005 1747 c-22 -12 -42 -25 -43 -30 -2 -4 -8 -5 -13 -1 -5 3 -9 0
-9 -5 0 -6 -3 -10 -7 -9 -5 1 -23 -6 -40 -15 -18 -10 -33 -15 -33 -12 0 4 -7
-1 -16 -9 -8 -9 -20 -14 -25 -11 -5 4 -9 2 -9 -3 0 -6 -10 -12 -23 -16 -13 -3
-41 -13 -63 -23 -21 -9 -46 -17 -54 -18 -8 0 -28 -9 -45 -18 l-30 -18 30 6
c85 18 374 150 415 191 19 19 13 17 -35 -9z"/>
<path d="M3560 1752 c0 -4 17 -9 37 -10 44 -3 42 3 -4 11 -18 4 -33 3 -33 -1z"/>
<path d="M1880 1745 c0 -2 13 -11 29 -20 23 -12 31 -12 37 -2 4 6 4 9 -1 5 -4
-4 -13 -4 -19 1 -14 10 -46 22 -46 16z"/>
<path d="M1960 1706 c0 -2 21 -11 47 -20 35 -12 50 -13 57 -5 8 9 8 10 0 6 -7
-4 -31 0 -54 8 -46 16 -50 17 -50 11z"/>
<path d="M3300 1701 c0 -9 23 -16 33 -9 1 1 13 -4 27 -12 16 -8 21 -8 14 -1
-6 6 -20 13 -32 16 -12 2 -27 7 -32 10 -6 3 -10 1 -10 -4z"/>
<path d="M3595 1692 c-27 -8 -45 -17 -40 -19 6 -2 35 5 65 16 65 23 47 26 -25
3z"/>
<path d="M2085 1669 c-18 -9 -18 -9 3 -5 16 3 22 -1 22 -15 0 -12 7 -19 18
-18 12 0 13 2 3 6 -10 4 -11 7 -1 13 20 13 -21 29 -45 19z"/>
<path d="M3403 1668 c15 -9 133 -11 124 -2 -4 4 -36 8 -71 8 -36 1 -59 -2 -53
-6z"/>
<path d="M2156 1652 c-7 -11 51 -28 61 -18 4 3 -3 6 -13 6 -11 0 -25 5 -31 11
-7 7 -13 7 -17 1z"/>
<path d="M3105 1640 c-13 -6 -2 -7 30 -3 28 3 52 7 54 9 9 8 -65 2 -84 -6z"/>
<path d="M2236 1631 c-3 -5 8 -11 25 -15 43 -8 49 -8 49 5 0 5 -4 8 -9 5 -5
-4 -21 -2 -35 4 -14 5 -28 5 -30 1z"/>
<path d="M3635 1614 c-114 -35 -359 -82 -465 -90 -50 -4 -88 -9 -85 -12 8 -8
87 -3 201 14 54 7 106 14 114 15 43 3 366 98 330 97 -8 0 -51 -11 -95 -24z"/>
<path d="M2195 1615 c6 -3 34 -11 63 -18 53 -14 70 -13 30 2 -25 9 -110 23
-93 16z"/>
<path d="M2326 1608 c7 -10 54 -11 54 0 0 4 -13 7 -29 7 -16 1 -27 -3 -25 -7z"/>
<path d="M2400 1600 c8 -5 26 -9 40 -9 23 0 23 1 5 9 -11 5 -29 9 -40 9 -17 1
-17 -1 -5 -9z"/>
<path d="M3105 1603 c-36 -9 -36 -19 0 -15 19 2 38 8 41 13 5 9 -7 10 -41 2z"/>
<path d="M3178 1603 c7 -3 16 -2 19 1 4 3 -2 6 -13 5 -11 0 -14 -3 -6 -6z"/>
<path d="M2480 1590 c-10 -7 5 -10 49 -10 35 0 62 2 60 4 -10 10 -96 14 -109
6z"/>
<path d="M2975 1589 c-26 -6 -23 -7 15 -8 25 0 52 4 60 9 17 11 -22 10 -75 -1z"/>
<path d="M2328 1583 c6 -2 18 -2 25 0 6 3 1 5 -13 5 -14 0 -19 -2 -12 -5z"/>
<path d="M2620 1579 c-14 -4 22 -7 79 -8 57 -1 102 2 99 5 -9 8 -150 11 -178
3z"/>
<path d="M2815 1580 c-4 -6 18 -10 56 -10 34 0 60 3 57 6 -11 10 -107 14 -113
4z"/>
<path d="M3245 1580 c-4 -7 3 -9 20 -6 37 7 44 16 12 16 -14 0 -29 -5 -32 -10z"/>
<path d="M2190 1570 c0 -10 114 -40 122 -32 4 4 -3 9 -17 10 -13 1 -42 8 -64
16 -23 7 -41 10 -41 6z"/>
<path d="M2390 1572 c0 -4 9 -8 19 -8 11 0 17 4 15 8 -3 4 -12 8 -20 8 -8 0
-14 -4 -14 -8z"/>
<path d="M3183 1568 c1 -7 -14 -18 -33 -25 l-35 -14 40 6 c22 2 49 5 59 5 20
0 20 0 0 16 -16 13 -16 15 -1 10 9 -3 17 -1 17 4 0 6 -11 10 -25 10 -14 0 -24
-5 -22 -12z"/>
<path d="M2440 1566 c0 -9 40 -13 46 -5 3 5 -6 9 -20 9 -14 0 -26 -2 -26 -4z"/>
<path d="M3116 1560 c7 -7 19 -7 35 -1 23 9 22 10 -10 10 -24 1 -32 -2 -25 -9z"/>
<path d="M3265 1560 c-18 -8 -17 -9 8 -9 16 -1 26 3 22 9 -3 6 -7 10 -8 9 -1
0 -11 -4 -22 -9z"/>
<path d="M2547 1553 c-3 -5 10 -8 29 -9 21 0 30 3 22 8 -16 10 -45 10 -51 1z"/>
<path d="M2984 1553 c10 -10 76 -10 76 0 0 4 -19 7 -42 7 -23 0 -38 -3 -34 -7z"/>
<path d="M3550 1550 c-18 -12 -2 -12 25 0 13 6 15 9 5 9 -8 0 -22 -4 -30 -9z"/>
<path d="M2655 1540 c3 -5 10 -10 16 -10 5 0 9 5 9 10 0 6 -7 10 -16 10 -8 0
-12 -4 -9 -10z"/>
<path d="M2725 1540 c-14 -5 -6 -8 29 -8 27 0 58 4 70 8 16 7 8 9 -29 9 -27 0
-59 -4 -70 -9z"/>
<path d="M2850 1540 c0 -5 5 -10 11 -10 5 0 7 5 4 10 -3 6 -8 10 -11 10 -2 0
-4 -4 -4 -10z"/>
<path d="M2908 1538 c7 -7 16 -7 28 0 14 8 13 10 -10 10 -18 0 -24 -4 -18 -10z"/>
<path d="M3510 1540 c-13 -8 -12 -10 3 -10 9 0 17 5 17 10 0 12 -1 12 -20 0z"/>
<path d="M3465 1530 c-3 -5 -2 -10 4 -10 5 0 13 5 16 10 3 6 2 10 -4 10 -5 0
-13 -4 -16 -10z"/>
<path d="M2345 1520 c27 -11 57 -12 51 -2 -3 5 -20 9 -38 9 -27 1 -29 -1 -13
-7z"/>
<path d="M3415 1520 c-4 -6 -16 -10 -28 -11 -12 0 -17 -3 -10 -5 6 -3 26 -1
44 4 25 6 29 10 17 15 -10 3 -20 2 -23 -3z"/>
<path d="M2415 1510 c-3 -5 1 -10 9 -10 9 0 16 5 16 10 0 6 -4 10 -9 10 -6 0
-13 -4 -16 -10z"/>
<path d="M2450 1498 c0 -4 12 -8 27 -8 14 0 23 3 19 7 -10 10 -46 11 -46 1z"/>
<path d="M3326 1503 c-3 -3 -18 -7 -33 -9 -85 -10 -106 -13 -111 -18 -6 -7 99
2 148 13 25 5 30 9 18 13 -9 4 -19 4 -22 1z"/>
<path d="M2514 1489 c-3 -5 7 -9 23 -9 15 0 38 -3 51 -6 13 -4 22 -2 22 5 0 7
-4 10 -8 7 -4 -3 -25 -1 -45 4 -21 4 -39 4 -43 -1z"/>
<path d="M2658 1467 c26 -6 47 -6 52 -1 5 5 -12 9 -43 10 l-52 1 43 -10z"/>
<path d="M3100 1468 c0 -4 14 -8 30 -8 17 0 30 4 30 8 0 5 -13 9 -30 9 -16 0
-30 -4 -30 -9z"/>
<path d="M2785 1459 c-24 -10 230 -9 265 1 14 4 -36 7 -110 7 -74 0 -144 -4
-155 -8z"/>
</g>
</svg>
